<?xml version="1.0" encoding="UTF-8" standalone="no"?>
<!-- Created with Inkscape (http://www.inkscape.org/) -->

<svg
   width="179.20142mm"
   height="163.14526mm"
   viewBox="0 0 179.20142 163.14526"
   version="1.1"
   id="svg5"
   xml:space="preserve"
   xmlns:inkscape="http://www.inkscape.org/namespaces/inkscape"
   xmlns:sodipodi="http://sodipodi.sourceforge.net/DTD/sodipodi-0.dtd"
   xmlns="http://www.w3.org/2000/svg"
   xmlns:svg="http://www.w3.org/2000/svg"><sodipodi:namedview
     id="namedview7"
     pagecolor="#ffffff"
     bordercolor="#000000"
     borderopacity="0.25"
     inkscape:showpageshadow="2"
     inkscape:pageopacity="0.0"
     inkscape:pagecheckerboard="0"
     inkscape:deskcolor="#d1d1d1"
     inkscape:document-units="mm"
     showgrid="false" /><defs
     id="defs2" /><g
     inkscape:label="레이어 1"
     inkscape:groupmode="layer"
     id="layer1"
     transform="translate(-18.067561,-78.315199)"><g
       style="fill:#ffffff;stroke-width:2.09549"
       id="g191"
       transform="matrix(4.208772,0,0,4.208772,7.5386819,160.1049)"><path
         d="m 18.59,5.88997 c -1.23,-0.57 -2.54,-0.99 -3.92,-1.23 -0.17,0.3 -0.37,0.71 -0.5,1.04 -1.46,-0.22 -2.91,-0.22 -4.33999,0 -0.14,-0.33 -0.34,-0.74 -0.51,-1.04 -1.38,0.24 -2.69,0.66 -3.92,1.23 -2.48,3.74 -3.15,7.39003 -2.82,10.98003 1.65,1.23 3.24,1.97 4.81,2.46 0.39,-0.53 0.73,-1.1 1.03,-1.69 -0.57,-0.21 -1.11,-0.48 -1.62,-0.79 0.14,-0.1 0.27,-0.21 0.4,-0.31 C 10.33,18 13.72,18 16.81,16.54 c 0.13,0.11 0.26,0.21 0.4,0.31 -0.51,0.31 -1.06,0.57 -1.62,0.79 0.3,0.59 0.64,1.16 1.03,1.69 1.57,-0.49 3.17,-1.23 4.81,-2.46 C 21.82,12.7 20.76,9.08997 18.61,5.88997 Z M 8.84001,14.67 c -0.94,0 -1.71,-0.87 -1.71,-1.94 0,-1.07 0.75,-1.94 1.71,-1.94 0.96,0 1.71999,0.87 1.70999,1.94 0,1.06 -0.74999,1.94 -1.70999,1.94 z m 6.30999,0 c -0.94,0 -1.71,-0.87 -1.71,-1.94 0,-1.07 0.75,-1.94 1.71,-1.94 0.96,0 1.72,0.87 1.71,1.94 0,1.06 -0.75,1.94 -1.71,1.94 z"
         fill="#000000"
         id="path182"
         style="fill:#ffffff;stroke-width:4.39108" /></g><g
       style="fill:#ffffff;stroke-width:2.64583"
       id="g202"
       transform="matrix(2.5,0,0,2.5,18.067561,78.3177)"><path
         d="m 0.844,0.735 v 30.531 h 2.197 v 0.735 H 0 v -32 h 3.041 v 0.735 z m 9.391,9.677 v 1.547 h 0.041 c 0.412,-0.595 0.912,-1.047 1.489,-1.371 0.579,-0.323 1.251,-0.484 2,-0.484 0.719,0 1.38,0.141 1.975,0.417 0.599,0.281 1.047,0.776 1.359,1.479 0.339,-0.5 0.803,-0.943 1.38,-1.323 0.579,-0.38 1.267,-0.573 2.063,-0.573 0.604,0 1.161,0.073 1.677,0.224 0.521,0.145 0.959,0.38 1.328,0.703 0.365,0.329 0.651,0.751 0.86,1.272 0.203,0.52 0.307,1.151 0.307,1.891 v 7.635 h -3.129 v -6.468 c 0,-0.381 -0.016,-0.745 -0.048,-1.084 -0.02,-0.307 -0.099,-0.604 -0.239,-0.88 -0.131,-0.251 -0.333,-0.459 -0.584,-0.593 -0.255,-0.152 -0.609,-0.224 -1.047,-0.224 -0.443,0 -0.797,0.083 -1.068,0.249 -0.265,0.167 -0.489,0.396 -0.64,0.667 -0.161,0.287 -0.265,0.604 -0.308,0.927 -0.052,0.349 -0.077,0.699 -0.083,1.048 v 6.359 h -3.131 v -6.401 c 0,-0.339 -0.005,-0.672 -0.025,-1 -0.011,-0.317 -0.073,-0.624 -0.193,-0.916 -0.104,-0.281 -0.301,-0.516 -0.552,-0.672 -0.255,-0.167 -0.636,-0.255 -1.136,-0.255 -0.151,0 -0.348,0.031 -0.588,0.099 -0.24,0.067 -0.479,0.192 -0.703,0.375 -0.229,0.188 -0.428,0.453 -0.589,0.797 -0.161,0.343 -0.239,0.796 -0.239,1.359 v 6.62 H 7.281 V 10.415 Z M 31.156,31.265 V 0.734 H 28.959 V -0.001 H 32 v 32 h -3.041 v -0.735 z"
         id="path193"
         style="fill:#ffffff;stroke-width:2.64583" /></g><g
       style="fill:#ffffff;stroke-width:2.64583"
       id="g213"
       transform="matrix(3.3333333,0,0,3.3333333,117.26897,118.3202)"><path
         d="M 12.103,0 C 18.666,0 24,5.485 24,11.997 c 0,6.51 -5.33,11.99 -11.9,11.99 L 0,24 V 11.79 C 0,5.28 5.532,0 12.103,0 Z m 0.116,4.563 a 7.395,7.395 0 0 0 -6.337,3.57 7.247,7.247 0 0 0 -0.148,7.22 L 4.4,19.61 9.194,18.536 a 7.424,7.424 0 0 0 8.136,-1.39 7.256,7.256 0 0 0 1.737,-7.997 7.375,7.375 0 0 0 -6.84,-4.585 h -0.008 z"
         id="path204"
         style="fill:#ffffff;stroke-width:2.64583" /></g></g></svg>
